<svg id="Capa_1" enable-background="new 0 0 512 512" height="512" viewBox="0 0 512 512" width="512" xmlns="http://www.w3.org/2000/svg"><g><path d="m35.691 122.194h441.044v332.069h-441.044z" fill="#7e454d"/><path d="m476.73 434.267v20h-441.04v-332.07h50v297.07c0 8.284 6.716 15 15 15z" fill="#683840"/><path d="m35.691 350.688h441.044v40h-441.044z" fill="#ffead8"/><path d="m35.691 255.113h441.044v40h-441.044z" fill="#ffead8"/><path d="m35.69 350.685h50v40h-50z" fill="#ffe3cb"/><path d="m35.69 255.11h50v40h-50z" fill="#ffe3cb"/><path d="m469.5 504.263h-427c-19.33 0-35-15.67-35-35v-15h497v15c0 19.33-15.67 35-35 35z" fill="#98e5fb"/><path d="m92.5 504.262h-50c-19.33 0-35-15.67-35-35v-15h50v15c0 19.33 15.67 35 35 35z" fill="#62dbfa"/><path d="m35.691 122.194v35.804c0 17.399 14.104 31.503 31.503 31.503 17.399 0 31.503-14.104 31.503-31.503 0 17.399 14.104 31.503 31.503 31.503 17.399 0 31.503-14.104 31.503-31.503 0 17.399 14.104 31.503 31.503 31.503 17.399 0 31.503-14.104 31.503-31.503 0 17.399 14.104 31.503 31.503 31.503 17.399 0 31.503-14.104 31.503-31.503 0 17.399 14.104 31.503 31.503 31.503 17.399 0 31.503-14.104 31.503-31.503 0 17.399 14.104 31.503 31.503 31.503 17.399 0 31.503-14.104 31.503-31.503 0 17.399 14.104 31.503 31.503 31.503 17.399 0 31.503-14.104 31.503-31.503v-35.804z" fill="#e58758"/><path d="m82.19 185.711c-4.46 2.42-9.57 3.79-15 3.79-17.39 0-31.5-14.1-31.5-31.5v-35.81h30v35.81c0 11.97 6.67 22.37 16.5 27.71z" fill="#df7246"/><g fill="#fe646f"><path d="m339.151 121.908 19.945-.267c20.931-.283 37.669-17.483 37.382-38.414l-.009-.651c-.162-11.798-5.549-22.742-14.671-29.967l-.052-.041c-8.683-6.874-15.3-16.008-19.126-26.399-1.637-5.531-5.01-10.177-9.421-13.423-4.404-3.246-9.846-5.09-15.612-5.011s-11.155 2.071-15.469 5.437c-4.32 3.366-7.565 8.102-9.05 13.676-1.77 5.246-4.246 10.195-7.34 14.725-3.095 4.527-6.811 8.634-11.055 12.187l-.05.042c-8.921 7.473-14.006 18.56-13.845 30.358l.009.651c.287 20.931 17.49 37.665 38.42 37.376z"/><path d="m173.896 121.908 19.945-.267c20.931-.283 37.669-17.483 37.382-38.414l-.009-.651c-.162-11.798-5.549-22.742-14.671-29.967l-.052-.041c-8.683-6.874-15.3-16.008-19.126-26.399-1.637-5.531-5.01-10.177-9.421-13.423-4.404-3.246-9.846-5.09-15.612-5.011s-11.155 2.071-15.469 5.437c-4.32 3.366-7.565 8.102-9.05 13.676-1.77 5.246-4.246 10.195-7.34 14.725-3.095 4.527-6.811 8.634-11.055 12.187l-.05.042c-8.921 7.473-14.006 18.56-13.845 30.358l.009.651c.287 20.931 17.49 37.665 38.42 37.376z"/><path d="m254.408 121.908 19.945-.267c20.931-.283 37.669-17.483 37.382-38.414l-.009-.651c-.162-11.798-5.549-22.742-14.671-29.967l-.052-.041c-8.683-6.874-15.3-16.008-19.126-26.399-1.637-5.531-5.01-10.177-9.421-13.423-4.404-3.246-9.846-5.09-15.612-5.011s-11.155 2.071-15.469 5.437c-4.32 3.366-7.565 8.102-9.05 13.676-1.77 5.246-4.246 10.195-7.34 14.725-3.095 4.527-6.811 8.634-11.055 12.187l-.05.042c-8.921 7.473-14.006 18.56-13.845 30.358l.009.651c.287 20.931 17.49 37.665 38.42 37.376z"/></g><path d="m266.849 11.653c-.755.464-1.483.973-2.183 1.519-4.321 3.366-7.56 8.106-9.043 13.673-1.774 5.249-4.249 10.198-7.342 14.729-3.102 4.521-6.814 8.634-11.063 12.191l-.045.036c-8.925 7.478-14.01 18.559-13.846 30.358l.009.655c.264 19.105 14.638 34.716 33.06 37.063l-1.983.027-19.951.282c-20.924.291-38.127-16.448-38.418-37.372l-.009-.655c-.164-11.799 4.922-22.88 13.846-30.358l.045-.036c4.249-3.557 7.96-7.669 11.063-12.191 3.093-4.531 5.568-9.48 7.342-14.729 1.483-5.568 4.722-10.307 9.043-13.673 4.312-3.366 9.707-5.358 15.475-5.44 5.075-.064 9.906 1.356 14 3.921z" fill="#fd4755"/><g><path d="m338.61 82.422c-4.142.057-7.454 3.46-7.397 7.602l.104 7.594c.057 4.107 3.403 7.397 7.498 7.397.035 0 .07 0 .104-.001 4.142-.057 7.454-3.46 7.397-7.602l-.104-7.594c-.057-4.141-3.45-7.448-7.602-7.396z"/><path d="m363.611 85.499c.035 0 .07 0 .104-.001 4.142-.057 7.454-3.46 7.397-7.602l-.104-7.594c-.057-4.107-3.403-7.397-7.498-7.397-.035 0-.07 0-.104.001-4.142.057-7.454 3.46-7.397 7.602l.104 7.594c.057 4.107 3.403 7.397 7.498 7.397z"/><path d="m338.078 60.332c.035 0 .07 0 .104-.001 4.142-.057 7.454-3.46 7.397-7.602l-.104-7.594c-.057-4.142-3.47-7.434-7.602-7.396-4.142.057-7.454 3.46-7.397 7.602l.104 7.594c.057 4.107 3.404 7.397 7.498 7.397z"/><path d="m173.46 82.421c-.035 0-.07 0-.104.001-4.142.057-7.454 3.46-7.397 7.602l.104 7.594c.057 4.107 3.403 7.397 7.498 7.397.035 0 .07 0 .104-.001 4.142-.057 7.454-3.46 7.397-7.602l-.104-7.594c-.057-4.107-3.404-7.397-7.498-7.397z"/><path d="m149.962 85.913c.035 0 .07 0 .104-.001 4.142-.057 7.454-3.46 7.397-7.602l-.104-7.594c-.057-4.107-3.403-7.397-7.498-7.397-.035 0-.07 0-.104.001-4.142.057-7.454 3.46-7.397 7.602l.104 7.594c.057 4.106 3.404 7.397 7.498 7.397z"/><path d="m172.823 60.332c.035 0 .07 0 .104-.001 4.142-.057 7.454-3.46 7.397-7.602l-.104-7.594c-.057-4.142-3.449-7.434-7.602-7.396-4.142.057-7.454 3.46-7.397 7.602l.104 7.594c.057 4.107 3.404 7.397 7.498 7.397z"/><path d="m253.868 82.422c-4.142.057-7.454 3.46-7.397 7.602l.104 7.594c.057 4.107 3.403 7.397 7.498 7.397.035 0 .07 0 .104-.001 4.142-.057 7.454-3.46 7.397-7.602l-.104-7.594c-.057-4.141-3.449-7.448-7.602-7.396z"/><path d="m278.869 85.499c.035 0 .07 0 .104-.001 4.142-.057 7.454-3.46 7.397-7.602l-.104-7.594c-.057-4.142-3.5-7.479-7.602-7.396-4.142.057-7.454 3.46-7.397 7.602l.104 7.594c.057 4.107 3.403 7.397 7.498 7.397z"/><path d="m230.475 85.913c.035 0 .07 0 .104-.001 4.142-.057 7.454-3.46 7.397-7.602l-.104-7.594c-.057-4.107-3.403-7.397-7.498-7.397-.035 0-.07 0-.104.001-4.142.057-7.454 3.46-7.397 7.602l.104 7.594c.057 4.106 3.403 7.397 7.498 7.397z"/><path d="m253.336 60.332c.035 0 .07 0 .104-.001 4.142-.057 7.454-3.46 7.397-7.602l-.104-7.594c-.057-4.142-3.468-7.434-7.602-7.396-4.142.057-7.454 3.46-7.397 7.602l.104 7.594c.057 4.107 3.404 7.397 7.498 7.397z"/><path d="m504.5 446.766h-20.27l.005-324.572c0-4.143-3.358-7.5-7.5-7.5h-84.956c17.75-19.019 15.1-51.877-5.377-68.011-7.536-5.958-13.296-13.874-16.667-22.904-5.496-15.01-16.245-22.857-32.248-23.541-15.976 1.125-26.507 9.265-31.594 24.422-2.171 6.342-5.403 12.019-9.697 17.031-4.887-5.135-8.708-11.215-11.203-17.905-2.1-6.899-6.276-12.801-12.086-17.076-13.503-8.813-26.884-8.63-40.141.547-10.416 8.115-11.884 21.987-19.31 31.906-3.822-4.574-6.884-9.779-8.97-15.38-5.503-15.009-16.256-22.857-32.259-23.544-15.975 1.124-26.505 9.263-31.592 24.418-3.128 9.153-9.118 17.112-16.244 23.539-19.48 16.467-21.667 47.662-4.642 66.499h-84.059c-3.625 0-6.65 2.572-7.348 5.991-.1.488-.153 326.081-.153 326.081h-20.689c-4.142 0-7.5 3.357-7.5 7.5v15c0 23.435 19.065 42.5 42.5 42.5h427c23.435 0 42.5-19.065 42.5-42.5v-15c0-4.144-3.358-7.501-7.5-7.501zm-184.323-417.523c2.09-7.593 9.196-13.892 17.518-14.007 8.379-.041 15.129 6.086 17.889 13.524 4.316 11.708 11.756 21.975 21.468 29.652 21.761 17.731 11.25 55.333-18.052 55.725l-39.891.551c-3.644.053-7.187-.55-10.53-1.73 14.556-17.258 13.784-44.409-1.357-61.07 1.67-1.931 9.445-9.891 12.955-22.645zm-105.432 30.268c9.68-8.185 16.576-18.274 20.687-30.266 2.774-8.193 8.56-14.013 17.773-14.013 8.212 0 14.942 6.222 17.634 13.527 4.303 11.689 11.741 21.955 21.559 29.728 7.387 5.852 11.698 14.669 11.829 24.196-1.14 16.641-11.583 31.208-29.974 31.458l-39.893.546c-17.412.168-29.769-14.188-30.825-30.63-.131-9.521 3.937-18.453 11.21-24.546zm-80.559.045c9.123-7.704 16.979-19.185 20.731-30.313 2.504-7.465 9.204-13.891 17.517-14.007 8.322-.079 15.178 6.108 17.897 13.52 2.861 7.777 7.157 14.99 12.598 21.21-17.315 16.418-19.093 45.396-3.71 63.584-1.798.354-45.658 1.142-45.801 1.142-28.442-.001-40.55-37.281-19.232-55.136zm-90.996 70.141h426.04v28.494c-.104 13.147-10.828 23.811-23.999 23.811-13.235 0-24.003-10.768-24.003-24.003 0-4.143-3.358-7.5-7.5-7.5s-7.5 3.357-7.5 7.5c0 13.235-10.768 24.003-24.003 24.003s-24.003-10.768-24.003-24.003c0-4.143-3.358-7.5-7.5-7.5s-7.5 3.357-7.5 7.5c0 13.235-10.768 24.003-24.003 24.003s-24.003-10.768-24.003-24.003c0-4.143-3.358-7.5-7.5-7.5s-7.5 3.357-7.5 7.5c0 13.235-10.768 24.003-24.003 24.003s-24.003-10.768-24.003-24.003c0-4.143-3.358-7.5-7.5-7.5s-7.5 3.357-7.5 7.5c0 13.235-10.768 24.003-24.003 24.003s-24.003-10.768-24.003-24.003c0-4.143-3.358-7.5-7.5-7.5s-7.5 3.357-7.5 7.5c0 13.235-10.768 24.003-24.003 24.003s-24.003-10.768-24.003-24.003c0-4.143-3.358-7.5-7.5-7.5s-7.5 3.357-7.5 7.5c0 13.235-10.768 24.003-24.003 24.003s-24.005-10.768-24.005-24.004zm0 132.92h351.71c4.142 0 7.5-3.357 7.5-7.5s-3.358-7.5-7.5-7.5h-351.71v-58.911c6.624 5.19 14.956 8.295 24.004 8.295 12.925 0 24.402-6.319 31.503-16.031 7.101 9.712 18.578 16.031 31.503 16.031s24.402-6.319 31.503-16.031c7.101 9.712 18.578 16.031 31.503 16.031s24.402-6.319 31.503-16.031c7.101 9.712 18.578 16.031 31.503 16.031s24.402-6.319 31.503-16.031c7.101 9.712 18.578 16.031 31.503 16.031s24.402-6.319 31.503-16.031c7.101 9.712 18.578 16.031 31.503 16.031s24.402-6.319 31.503-16.031c7.101 9.712 18.577 16.031 31.503 16.031 9.046 0 17.375-3.104 23.999-8.291v58.906h-41.65c-4.142 0-7.5 3.357-7.5 7.5s3.358 7.5 7.5 7.5h41.65v25h-426.039zm0 95.57h66.15c4.142 0 7.5-3.357 7.5-7.5s-3.358-7.5-7.5-7.5h-66.15v-40.57h426.04v40.57h-327.2c-4.142 0-7.5 3.357-7.5 7.5s3.358 7.5 7.5 7.5h327.2v25h-426.04zm453.81 111.079c0 15.164-12.336 27.5-27.5 27.5h-427c-15.164 0-27.5-12.336-27.5-27.5v-7.5h254.1c4.142 0 7.5-3.357 7.5-7.5s-3.358-7.5-7.5-7.5h-225.91v-48.579h426.04v48.579h-167.45c-4.142 0-7.5 3.357-7.5 7.5s3.358 7.5 7.5 7.5h195.22z"/></g></g></svg>